<svg xmlns="http://www.w3.org/2000/svg" version="1.1" xmlns:xlink="http://www.w3.org/1999/xlink" xmlns:svgjs="http://svgjs.dev/svgjs" width="1366" height="768" preserveAspectRatio="none" viewBox="0 0 1366 768"><g mask="url(&quot;#SvgjsMask1002&quot;)" fill="none"><rect width="1366" height="768" x="0" y="0" fill="url(&quot;#SvgjsLinearGradient1003&quot;)"></rect><path d="M20.57 192C20.57 185.92 1.29 189.23 0 177.23C-9 93.23 -46.08 42.54 0 0C49.92 -46.08 96 0 192 0C288 0 288 0 384 0C480 0 480 0 576 0C642.08 0 648.22 -16.35 708.16 0C744.22 9.83 738.72 52.36 768 52.36C795.75 52.36 788.27 9.26 822.21 0C884.27 -16.92 891.11 0 960 0C1056 0 1056 0 1152 0C1248 0 1248 0 1344 0C1440 0 1488 -48 1536 0C1584 48 1536 96 1536 192C1536 288 1536 288 1536 384C1536 480 1536 480 1536 576C1536 651.24 1549.66 656.5 1536 726.49C1530.93 752.5 1524.05 762.49 1498.54 768C1428.05 783.24 1421.27 768 1344 768C1248 768 1248 768 1152 768C1056 768 1056 768 960 768C864 768 864 768 768 768C672 768 672 768 576 768C480 768 480 768 384 768C288 768 288 768 192 768C96 768 48 816 0 768C-48 720 0 672 0 576C0 480 0 480 0 384C0 292 -9.18 285.72 0 200C1.1 189.72 20.57 197.3 20.57 192" stroke="rgba(51, 121, 194, 0.58)" stroke-width="2"></path><path d="M576 143.32C524.07 143.32 460.8 160.95 460.8 192C460.8 227.44 528.61 276.29 576 276.29C607.29 276.29 618.15 231.5 618.15 192C618.15 165.01 602.74 143.32 576 143.32" stroke="rgba(51, 121, 194, 0.58)" stroke-width="2"></path><path d="M768 370.09C749.81 370.09 733.71 375.66 733.71 384C733.71 393.05 748.65 404.87 768 404.87C845.79 404.87 928 392.72 928 384C928 375.33 846.95 370.09 768 370.09" stroke="rgba(51, 121, 194, 0.58)" stroke-width="2"></path><path d="M960 405.33C924.26 405.33 928.65 494.05 928.65 576C928.65 601.97 937.03 621.18 960 621.18C1016.7 621.18 1088 617.97 1088 576C1088 510.04 1003.94 405.33 960 405.33" stroke="rgba(51, 121, 194, 0.58)" stroke-width="2"></path><path d="M132 0C132 14.06 47.84 54.15 0 54.15C-18.16 54.15 -19.2 7.88 0 0C46.8 -19.2 132 -13.01 132 0" stroke="rgba(51, 121, 194, 0.58)" stroke-width="2"></path><path d="M576 75.72C502.04 75.72 413.09 19.85 413.09 0C413.09 -18.01 494.55 0 576 0C610.91 0 645.82 -15.3 645.82 0C645.82 22.56 618.4 75.72 576 75.72" stroke="rgba(51, 121, 194, 0.58)" stroke-width="2"></path><path d="M676.68 192C676.68 146.69 722.77 149.9 768 106.91C823.77 53.9 815.87 34.97 878.68 0C911.87 -18.48 919.34 0 960 0C1056 0 1056 0 1152 0C1248 0 1248 0 1344 0C1440 0 1488 -48 1536 0C1584 48 1536 96 1536 192C1536 288 1536 288 1536 384C1536 480 1536 480 1536 576C1536 586.38 1542.38 588.83 1536 596.76C1465.11 684.83 1464.05 694.34 1381.46 768C1368.05 779.96 1362.73 768 1344 768C1258.66 768 1189.56 810.46 1173.33 768C1152.86 714.46 1268.04 672.98 1270.59 576C1273.09 480.98 1165.3 467.14 1183.42 384C1202 298.75 1253.52 293.4 1344 239.21C1413.81 197.4 1504 215.61 1504 192C1504 168.39 1425.67 152.02 1344 144.79C1249.67 136.45 1246.15 144.66 1152 160.86C1109.01 168.26 1110.37 175.24 1069.71 192C1014.37 214.81 1016.27 219.76 960 240C865.41 274.02 851.11 314.6 768 300.52C709.45 290.6 676.68 243.49 676.68 192" stroke="rgba(51, 121, 194, 0.58)" stroke-width="2"></path><path d="M0 266.67C61.16 205.51 93.92 199.48 192 192C285.92 184.84 298.31 193.54 384 237.38C485.94 289.54 499.22 298.01 567.27 384C595.22 419.32 542.71 459.23 576 480C643.07 521.84 681.47 476.6 768 509.22C808.81 524.6 830.69 538.91 830.69 576C830.69 627.16 811.25 642.16 768 685.71C715.91 738.16 707.58 739.04 640 768C611.58 780.18 608 768 576 768C549.82 768 542.54 783.91 523.64 768C446.54 703.07 441.41 606.32 384 606.32C336.68 606.32 370.86 720.27 314.18 768C274.86 801.11 253.09 768 192 768C115.2 768 38.4 803.32 38.4 768C38.4 713.72 105.38 660.99 192 588.8C220.58 564.99 268.8 582.74 268.8 576C268.8 569.23 230.36 569.09 192 561.78C95.96 543.49 55.81 576.48 0 524.8C-40.19 487.59 0 454.4 0 384C0 325.34 -34.84 301.51 0 266.67" stroke="rgba(51, 121, 194, 0.58)" stroke-width="2"></path><path d="M945.23 768C945.23 766.54 952.18 762.35 960 762.35C1007.56 762.35 1056 766.59 1056 768C1056 769.41 1008 768 960 768C952.62 768 945.23 769.36 945.23 768" stroke="rgba(51, 121, 194, 0.58)" stroke-width="2"></path><path d="M576 8.11C568.08 8.11 558.55 2.13 558.55 0C558.55 -1.93 567.28 0 576 0C579.74 0 583.48 -1.64 583.48 0C583.48 2.42 580.54 8.11 576 8.11" stroke="rgba(51, 121, 194, 0.58)" stroke-width="2"></path><path d="M735.22 192C735.22 175.73 748.42 161.45 768 161.45C808.17 161.45 854.71 174.91 854.71 192C854.71 209.67 806.91 230.96 768 230.96C747.16 230.96 735.22 210.49 735.22 192" stroke="rgba(51, 121, 194, 0.58)" stroke-width="2"></path><path d="M960 75.43C928.85 70.96 935.15 28.73 935.15 0C935.15 -8.99 947.58 0 960 0C1056 0 1056 0 1152 0C1248 0 1248 0 1344 0C1424.64 0 1505.28 -15.88 1505.28 0C1505.28 17.17 1427.33 58.75 1344 66.1C1250.69 74.32 1247.54 28.82 1152 31.14C1055.54 33.48 1037.28 86.53 960 75.43" stroke="rgba(51, 121, 194, 0.58)" stroke-width="2"></path><path d="M0 333.33C76.48 333.33 192 356.33 192 384C192 412.06 73.74 444.8 0 444.8C-22.26 444.8 0 414.4 0 384C0 358.66 -19.52 333.33 0 333.33" stroke="rgba(51, 121, 194, 0.58)" stroke-width="2"></path><path d="M192 384C192 348.98 293.63 324.65 384 324.65C426.72 324.65 458.18 351.15 458.18 384C458.18 422.67 430.33 467.69 384 467.69C297.24 467.69 192 420.5 192 384" stroke="rgba(51, 121, 194, 0.58)" stroke-width="2"></path><path d="M1270.69 384C1270.69 345.47 1299.12 332.51 1344 317.9C1431.78 289.31 1469.68 274.77 1536 297.6C1565.68 307.82 1536 340.8 1536 384C1536 428.31 1566.01 453.53 1536 472.62C1470.01 514.62 1420.63 531.78 1344 506.18C1287.98 487.47 1270.69 439.61 1270.69 384" stroke="rgba(51, 121, 194, 0.58)" stroke-width="2"></path><path d="M175.54 768C175.54 762.18 184.3 748.8 192 748.8C199.08 748.8 205.09 761.86 205.09 768C205.09 771.46 198.55 768 192 768C183.77 768 175.54 771.78 175.54 768" stroke="rgba(51, 121, 194, 0.58)" stroke-width="2"></path></g><defs><mask id="SvgjsMask1002"><rect width="1366" height="768" fill="#ffffff"></rect></mask><linearGradient x1="100%" y1="50%" x2="0%" y2="50%" gradientUnits="userSpaceOnUse" id="SvgjsLinearGradient1003"><stop stop-color="#0e2a47" offset="0"></stop><stop stop-color="rgba(2, 1, 4, 1)" offset="1"></stop></linearGradient></defs></svg>